<?xml version="1.0" standalone="no"?>
<!DOCTYPE svg PUBLIC "-//W3C//DTD SVG 20010904//EN"
 "http://www.w3.org/TR/2001/REC-SVG-20010904/DTD/svg10.dtd">
<svg version="1.0" xmlns="http://www.w3.org/2000/svg"
 width="256.000000pt" height="256.000000pt" viewBox="0 0 256.000000 256.000000"
 preserveAspectRatio="xMidYMid meet">
<metadata>
Created by potrace 1.11, written by Peter Selinger 2001-2013
</metadata>
<g transform="translate(0.000000,256.000000) scale(0.100000,-0.100000)"
fill="#000000" stroke="none">
<path d="M2010 2545 c0 -10 -10 -15 -30 -15 -20 0 -30 -5 -30 -15 0 -8 -7 -15
-15 -15 -8 0 -15 -7 -15 -15 0 -8 -7 -15 -15 -15 -8 0 -15 -7 -15 -15 0 -8 -7
-15 -15 -15 -8 0 -15 -7 -15 -15 0 -12 -17 -15 -95 -15 -88 0 -95 -1 -95 -20
0 -18 -7 -20 -60 -20 -47 0 -60 -3 -60 -15 0 -11 -12 -15 -45 -15 -33 0 -45
-4 -45 -15 0 -10 -10 -15 -30 -15 -20 0 -30 -5 -30 -15 0 -10 -10 -15 -30 -15
-20 0 -30 -5 -30 -15 0 -8 -7 -15 -15 -15 -8 0 -15 -7 -15 -15 0 -8 -7 -15
-15 -15 -8 0 -15 -7 -15 -15 0 -8 -7 -15 -15 -15 -8 0 -15 -7 -15 -15 0 -8 -9
-15 -20 -15 -16 0 -20 -7 -20 -30 0 -20 -5 -30 -15 -30 -8 0 -15 -7 -15 -15 0
-8 -7 -15 -15 -15 -8 0 -15 -7 -15 -15 0 -8 -7 -15 -15 -15 -8 0 -15 -7 -15
-15 0 -8 -7 -15 -15 -15 -10 0 -15 -10 -15 -30 0 -20 -5 -30 -15 -30 -10 0
-15 -10 -15 -30 0 -20 -5 -30 -15 -30 -10 0 -15 -10 -15 -30 0 -27 -3 -30 -30
-30 -23 0 -30 -4 -30 -20 0 -18 -7 -20 -60 -20 -47 0 -60 -3 -60 -15 0 -12
-17 -15 -90 -15 -73 0 -90 -3 -90 -15 0 -12 -16 -15 -80 -15 -64 0 -80 -3 -80
-15 0 -12 -13 -15 -60 -15 -47 0 -60 -3 -60 -15 0 -8 -7 -15 -15 -15 -8 0 -15
-7 -15 -15 0 -8 -7 -15 -15 -15 -8 0 -15 -7 -15 -15 0 -10 10 -15 30 -15 20 0
30 5 30 15 0 12 15 15 75 15 l75 0 0 -30 c0 -27 -3 -30 -30 -30 -20 0 -30 -5
-30 -15 0 -11 -12 -15 -45 -15 -33 0 -45 -4 -45 -15 0 -13 21 -15 125 -15 104
0 125 2 125 15 0 12 15 15 75 15 60 0 75 3 75 15 0 12 17 15 90 15 73 0 90 -3
90 -15 0 -8 -7 -15 -15 -15 -12 0 -15 -17 -15 -90 0 -73 3 -90 15 -90 12 0 15
-16 15 -80 0 -64 3 -80 15 -80 10 0 15 -10 15 -30 0 -20 5 -30 15 -30 8 0 15
-7 15 -15 0 -8 7 -15 15 -15 8 0 15 -7 15 -15 0 -8 7 -15 15 -15 10 0 15 -10
15 -30 0 -20 -5 -30 -15 -30 -10 0 -15 -10 -15 -30 0 -20 -5 -30 -15 -30 -10
0 -15 -10 -15 -30 0 -20 -5 -30 -15 -30 -8 0 -15 -7 -15 -15 0 -8 -7 -15 -15
-15 -11 0 -15 -12 -15 -45 0 -33 -4 -45 -15 -45 -8 0 -15 -7 -15 -15 0 -8 -7
-15 -15 -15 -11 0 -15 -12 -15 -50 0 -38 -4 -50 -15 -50 -10 0 -15 -10 -15
-30 0 -20 -5 -30 -15 -30 -10 0 -15 -10 -15 -30 0 -20 -5 -30 -15 -30 -10 0
-15 -10 -15 -30 0 -20 -5 -30 -15 -30 -11 0 -15 -12 -15 -45 0 -33 -4 -45 -15
-45 -12 0 -15 -20 -15 -120 0 -100 3 -120 15 -120 8 0 15 -7 15 -15 0 -12 18
-15 105 -15 87 0 105 3 105 15 0 8 7 15 15 15 10 0 15 10 15 30 0 20 5 30 15
30 10 0 15 10 15 30 0 20 5 30 15 30 8 0 15 7 15 15 0 8 7 15 15 15 12 0 15
15 15 75 0 60 3 75 15 75 12 0 15 13 15 60 0 47 3 60 15 60 12 0 15 14 15 65
0 51 3 65 15 65 11 0 15 12 15 45 0 38 3 45 20 45 16 0 20 7 20 30 0 20 5 30
15 30 10 0 15 10 15 30 0 20 5 30 15 30 8 0 15 7 15 15 0 8 7 15 15 15 8 0 15
-7 15 -15 0 -13 34 -15 245 -15 211 0 245 2 245 15 0 12 13 15 60 15 47 0 60
3 60 15 0 11 12 15 45 15 33 0 45 4 45 15 0 10 10 15 30 15 20 0 30 5 30 15 0
8 7 15 15 15 13 0 15 -25 15 -165 l0 -165 30 0 30 0 0 60 c0 47 3 60 15 60 8
0 15 -7 15 -15 0 -10 10 -15 30 -15 20 0 30 -5 30 -15 0 -8 7 -15 15 -15 12 0
15 -14 15 -65 0 -51 3 -65 15 -65 10 0 15 -10 15 -30 0 -20 5 -30 15 -30 12 0
15 -15 15 -75 0 -68 2 -75 20 -75 19 0 20 7 20 90 0 83 -1 90 -20 90 -19 0
-20 7 -20 110 0 91 -3 110 -15 110 -12 0 -15 13 -15 60 0 47 -3 60 -15 60 -12
0 -15 15 -15 75 0 60 -3 75 -15 75 -12 0 -15 13 -15 60 0 47 3 60 15 60 8 0
15 9 15 20 0 11 7 20 15 20 8 0 15 7 15 15 0 8 7 15 15 15 8 0 15 7 15 15 0 8
9 15 20 15 11 0 20 7 20 15 0 8 7 15 15 15 10 0 15 10 15 30 0 20 5 30 15 30
10 0 15 10 15 30 0 20 5 30 15 30 11 0 15 12 15 45 0 33 4 45 15 45 11 0 15
12 15 45 0 33 4 45 15 45 13 0 15 24 15 155 0 131 -2 155 -15 155 -10 0 -15
10 -15 30 0 20 -5 30 -15 30 -8 0 -15 7 -15 15 0 8 -7 15 -15 15 -10 0 -15 10
-15 30 0 20 -5 30 -15 30 -8 0 -15 7 -15 15 0 8 -7 15 -15 15 -8 0 -15 7 -15
15 0 8 -9 15 -20 15 -11 0 -20 7 -20 15 0 8 -7 15 -15 15 -8 0 -15 7 -15 15 0
12 -15 15 -75 15 l-75 0 0 30 c0 20 -5 30 -15 30 -12 0 -15 19 -15 110 0 91
-3 110 -15 110 -8 0 -15 7 -15 15 0 8 -7 15 -15 15 -8 0 -15 7 -15 15 0 11
-12 15 -45 15 -33 0 -45 -4 -45 -15z m-310 -355 c0 -20 -5 -30 -15 -30 -10 0
-15 -10 -15 -30 0 -20 -5 -30 -15 -30 -10 0 -15 -10 -15 -30 0 -20 -5 -30 -15
-30 -10 0 -15 -10 -15 -30 0 -20 -5 -30 -15 -30 -8 0 -15 -7 -15 -15 0 -10
-10 -15 -30 -15 -20 0 -30 -5 -30 -15 0 -12 -18 -15 -105 -15 -87 0 -105 -3
-105 -15 0 -10 -10 -15 -30 -15 -20 0 -30 5 -30 15 0 8 7 15 15 15 8 0 15 7
15 15 0 8 7 15 15 15 8 0 15 7 15 15 0 8 7 15 15 15 8 0 15 7 15 15 0 8 7 15
15 15 10 0 15 10 15 30 0 20 5 30 15 30 8 0 15 7 15 15 0 8 7 15 15 15 8 0 15
7 15 15 0 10 10 15 30 15 20 0 30 5 30 15 0 10 10 15 30 15 20 0 30 5 30 15 0
11 12 15 45 15 33 0 45 4 45 15 0 10 10 15 30 15 27 0 30 -3 30 -30z m280
-105 l0 -105 -75 0 c-60 0 -75 3 -75 15 0 8 7 15 15 15 8 0 15 7 15 15 0 8 7
15 15 15 10 0 15 10 15 30 0 20 5 30 15 30 10 0 15 10 15 30 0 20 5 30 15 30
8 0 15 7 15 15 0 8 7 15 15 15 12 0 15 -18 15 -105z m270 -30 c0 -8 7 -15 15
-15 8 0 15 -7 15 -15 0 -8 7 -15 15 -15 8 0 15 -7 15 -15 0 -11 -12 -15 -45
-15 l-45 0 0 45 c0 33 4 45 15 45 8 0 15 -7 15 -15z m160 -295 c0 -23 -4 -30
-20 -30 -18 0 -20 -7 -20 -60 0 -47 -3 -60 -15 -60 -10 0 -15 -10 -15 -30 0
-20 -5 -30 -15 -30 -10 0 -15 -10 -15 -30 0 -20 -5 -30 -15 -30 -10 0 -15 -10
-15 -30 0 -20 -5 -30 -15 -30 -13 0 -15 27 -15 180 l0 180 80 0 80 0 0 -30z
m-400 -45 c0 -33 4 -45 15 -45 12 0 15 -15 15 -75 0 -60 3 -75 15 -75 12 0 15
-17 15 -90 0 -73 3 -90 15 -90 11 0 15 -12 15 -45 0 -33 -4 -45 -15 -45 -8 0
-15 -9 -15 -20 0 -11 -7 -20 -15 -20 -8 0 -15 -7 -15 -15 0 -8 -7 -15 -15 -15
-8 0 -15 -7 -15 -15 0 -10 -10 -15 -30 -15 -20 0 -30 -5 -30 -15 0 -11 -12
-15 -45 -15 -33 0 -45 -4 -45 -15 0 -12 -14 -15 -65 -15 -51 0 -65 -3 -65 -15
0 -13 -23 -15 -150 -15 -127 0 -150 2 -150 15 0 10 -10 15 -30 15 -20 0 -30 5
-30 15 0 8 7 15 15 15 10 0 15 10 15 30 0 20 5 30 15 30 10 0 15 11 15 35 0
24 5 35 15 35 10 0 15 10 15 30 0 20 5 30 15 30 10 0 15 10 15 30 0 20 5 30
15 30 10 0 15 10 15 30 0 20 5 30 15 30 10 0 15 10 15 30 0 20 5 30 15 30 10
0 15 10 15 30 0 20 5 30 15 30 8 0 15 7 15 15 0 8 7 15 15 15 10 0 15 10 15
30 0 20 5 30 15 30 10 0 15 10 15 30 0 20 5 30 15 30 8 0 15 7 15 15 0 8 7 15
15 15 8 0 15 7 15 15 0 13 22 15 140 15 l140 0 0 -45z m-550 0 c0 -8 -7 -15
-15 -15 -8 0 -15 -7 -15 -15 0 -8 -7 -15 -15 -15 -10 0 -15 -10 -15 -30 0 -20
-5 -30 -15 -30 -10 0 -15 -10 -15 -30 0 -20 -5 -30 -15 -30 -10 0 -15 -10 -15
-30 0 -20 -5 -30 -15 -30 -10 0 -15 -10 -15 -30 0 -20 -5 -30 -15 -30 -10 0
-15 -10 -15 -30 0 -20 -5 -30 -15 -30 -10 0 -15 -10 -15 -30 0 -23 -4 -30 -20
-30 -16 0 -20 -7 -20 -30 0 -27 -3 -30 -30 -30 -27 0 -30 3 -30 30 0 20 -5 30
-15 30 -12 0 -15 13 -15 60 0 47 -3 60 -15 60 -8 0 -15 7 -15 15 0 8 7 15 15
15 12 0 15 15 15 75 0 60 3 75 15 75 8 0 15 7 15 15 0 10 10 15 30 15 20 0 30
5 30 15 0 11 12 15 50 15 38 0 50 4 50 15 0 12 13 15 60 15 47 0 60 3 60 15 0
8 7 15 15 15 8 0 15 -7 15 -15z"/>
</g>
</svg>
